<?xml version="1.0" encoding="UTF-8"?>
<svg id="Layer_1" data-name="Layer 1" xmlns="http://www.w3.org/2000/svg" xmlns:xlink="http://www.w3.org/1999/xlink" viewBox="0 0 85.23 61.23">
  <defs>
    <style>
      .cls-1 {
        fill: url(#linear-gradient);
        fill-rule: evenodd;
      }
    </style>
    <linearGradient id="linear-gradient" x1="42.61" y1="61.23" x2="42.61" y2="0" gradientUnits="userSpaceOnUse">
      <stop offset="0" stop-color="#cb2026"/>
      <stop offset="1" stop-color="#4f1d0d"/>
    </linearGradient>
  </defs>
  <path class="cls-1" d="m82.33,30.51c1.3-2.33,2.88-3.59,2.88-12.72C85.21,11.5,77.69.06,67.69.03H22.57c-6.78,0-8.67-.34-12.96,1.44C-.72,5.76.01,16.08.01,30.51v30.72h8.4V20.43c.07-4.88,1.3-9.87,5.52-11.28,2.32-.78,9.95-.72,14.64-.72,9.28.08,27.44-.08,36.72,0,3.18.07,11.76,2.68,11.76,11.28,0,6.28-2.95,9.32-6,11.04,3.21,2.04,6.24,4.53,6.24,11.28.07,5.8-6.32,10.44-9.6,10.56-2.21.08-3.78,0-6.96,0h-16.56v8.4h23.28c6.61,0,12.01-5.1,15.12-9.84,5.16-7.85,1.52-18.49-.24-20.64Zm-16.56-.96c3.92.03,8.64-3.45,8.64-9.6,0-6.83-5.94-9.21-8.64-9.36H26.17c-4.86,0-10.68-.18-12.96,1.44-1.16.82-1.84,2.29-2.4,4.8-.6,2.72-.24,6.92-.24,12.72h31.2v-8.4h-22.8c.09-.69.16-1.04.48-1.44.44-.53.97-.72,1.92-.72h22.8v10.56h21.6Zm-12.96-10.56h11.52c1.04,0,1.92.33,1.92.96s-.89,1.19-1.92,1.2c-.91.01-9.11,0-11.52,0v-2.16Zm-8.64,31.68c8.11.09,19.36,0,23.28,0,2.05-.56,3.48-2.02,4.8-3.36,1.32-1.34,3.29-4.63,2.4-7.92-.8-2.97-3.11-7.01-6-7.68H10.57v29.52h8.4v-21.12h25.2v10.56Zm8.64-10.56c2.22-.03,10.48,0,11.52,0s1.92.33,1.92.96-1.01,1.2-1.92,1.2-9.18,0-11.52,0v-2.16Z"/>
</svg>